<mxfile host="app.diagrams.net" modified="2022-09-20T14:09:19.423Z" agent="5.0 (X11; Linux x86_64) AppleWebKit/537.36 (KHTML, like Gecko) Chrome/105.0.0.0 Safari/537.36" etag="0FgOM_RhKHtPKLherkR-" version="20.3.2" type="github">
  <diagram id="vJl3m5sy9_TRx9111Zg3" name="Page-1">
    <mxGraphModel dx="1673" dy="1938" grid="1" gridSize="10" guides="1" tooltips="1" connect="1" arrows="1" fold="1" page="1" pageScale="1" pageWidth="850" pageHeight="1100" background="none" math="0" shadow="0">
      <root>
        <mxCell id="0" />
        <mxCell id="1" parent="0" />
        <mxCell id="cE9KhYs64frih6GcxbA9-4" style="edgeStyle=orthogonalEdgeStyle;rounded=0;orthogonalLoop=1;jettySize=auto;html=1;exitX=1;exitY=0.5;exitDx=0;exitDy=0;" parent="1" source="cE9KhYs64frih6GcxbA9-1" target="cE9KhYs64frih6GcxbA9-3" edge="1">
          <mxGeometry relative="1" as="geometry" />
        </mxCell>
        <mxCell id="cE9KhYs64frih6GcxbA9-1" value="Rabbit" style="rounded=0;whiteSpace=wrap;html=1;" parent="1" vertex="1">
          <mxGeometry y="40" width="120" height="60" as="geometry" />
        </mxCell>
        <mxCell id="cE9KhYs64frih6GcxbA9-35" style="edgeStyle=orthogonalEdgeStyle;rounded=0;orthogonalLoop=1;jettySize=auto;html=1;fontSize=19;strokeWidth=2;" parent="1" source="cE9KhYs64frih6GcxbA9-2" target="cE9KhYs64frih6GcxbA9-34" edge="1">
          <mxGeometry relative="1" as="geometry" />
        </mxCell>
        <mxCell id="cE9KhYs64frih6GcxbA9-2" value="SERVICE 3&lt;br&gt;SEND FB" style="ellipse;whiteSpace=wrap;html=1;aspect=fixed;" parent="1" vertex="1">
          <mxGeometry x="1020" y="550" width="80" height="80" as="geometry" />
        </mxCell>
        <mxCell id="cE9KhYs64frih6GcxbA9-6" style="edgeStyle=orthogonalEdgeStyle;rounded=0;orthogonalLoop=1;jettySize=auto;html=1;exitX=1;exitY=0.5;exitDx=0;exitDy=0;" parent="1" source="cE9KhYs64frih6GcxbA9-3" target="cE9KhYs64frih6GcxbA9-5" edge="1">
          <mxGeometry relative="1" as="geometry" />
        </mxCell>
        <mxCell id="cE9KhYs64frih6GcxbA9-8" style="edgeStyle=orthogonalEdgeStyle;rounded=0;orthogonalLoop=1;jettySize=auto;html=1;exitX=0.5;exitY=1;exitDx=0;exitDy=0;" parent="1" source="cE9KhYs64frih6GcxbA9-3" target="cE9KhYs64frih6GcxbA9-7" edge="1">
          <mxGeometry relative="1" as="geometry" />
        </mxCell>
        <mxCell id="cE9KhYs64frih6GcxbA9-3" value="SERVICE-1" style="ellipse;whiteSpace=wrap;html=1;aspect=fixed;" parent="1" vertex="1">
          <mxGeometry x="240" y="30" width="80" height="80" as="geometry" />
        </mxCell>
        <mxCell id="cE9KhYs64frih6GcxbA9-5" value="FONTES PUBLICAS" style="ellipse;shape=cloud;whiteSpace=wrap;html=1;" parent="1" vertex="1">
          <mxGeometry x="320" y="-80" width="180" height="80" as="geometry" />
        </mxCell>
        <mxCell id="cE9KhYs64frih6GcxbA9-14" style="edgeStyle=orthogonalEdgeStyle;rounded=0;orthogonalLoop=1;jettySize=auto;html=1;entryX=0;entryY=0.5;entryDx=0;entryDy=0;fontSize=19;" parent="1" source="cE9KhYs64frih6GcxbA9-7" target="cE9KhYs64frih6GcxbA9-12" edge="1">
          <mxGeometry relative="1" as="geometry" />
        </mxCell>
        <mxCell id="cE9KhYs64frih6GcxbA9-7" value="Dados&lt;br&gt;pÃºblicos" style="shape=cylinder3;whiteSpace=wrap;html=1;boundedLbl=1;backgroundOutline=1;size=15;" parent="1" vertex="1">
          <mxGeometry x="250" y="230" width="60" height="80" as="geometry" />
        </mxCell>
        <mxCell id="cE9KhYs64frih6GcxbA9-9" value="WRITING" style="text;html=1;align=center;verticalAlign=middle;resizable=0;points=[];autosize=1;strokeColor=none;fillColor=none;rotation=90;" parent="1" vertex="1">
          <mxGeometry x="260" y="160" width="70" height="20" as="geometry" />
        </mxCell>
        <mxCell id="cE9KhYs64frih6GcxbA9-13" style="edgeStyle=orthogonalEdgeStyle;rounded=0;orthogonalLoop=1;jettySize=auto;html=1;fontSize=19;" parent="1" source="cE9KhYs64frih6GcxbA9-10" target="cE9KhYs64frih6GcxbA9-12" edge="1">
          <mxGeometry relative="1" as="geometry" />
        </mxCell>
        <mxCell id="cE9KhYs64frih6GcxbA9-10" value="&lt;font style=&quot;font-size: 19px&quot;&gt;wallet&lt;/font&gt;" style="shape=cylinder3;whiteSpace=wrap;html=1;boundedLbl=1;backgroundOutline=1;size=15;" parent="1" vertex="1">
          <mxGeometry x="560" y="-60" width="110" height="130" as="geometry" />
        </mxCell>
        <mxCell id="cE9KhYs64frih6GcxbA9-16" style="edgeStyle=orthogonalEdgeStyle;rounded=0;orthogonalLoop=1;jettySize=auto;html=1;fontSize=19;" parent="1" source="cE9KhYs64frih6GcxbA9-12" target="cE9KhYs64frih6GcxbA9-15" edge="1">
          <mxGeometry relative="1" as="geometry" />
        </mxCell>
        <mxCell id="cE9KhYs64frih6GcxbA9-30" style="edgeStyle=orthogonalEdgeStyle;rounded=0;orthogonalLoop=1;jettySize=auto;html=1;fontSize=19;strokeWidth=2;" parent="1" source="cE9KhYs64frih6GcxbA9-12" target="cE9KhYs64frih6GcxbA9-25" edge="1">
          <mxGeometry relative="1" as="geometry" />
        </mxCell>
        <mxCell id="cE9KhYs64frih6GcxbA9-12" value="SERVICE 2" style="ellipse;whiteSpace=wrap;html=1;aspect=fixed;fontSize=19;" parent="1" vertex="1">
          <mxGeometry x="450" y="190" width="160" height="160" as="geometry" />
        </mxCell>
        <mxCell id="cE9KhYs64frih6GcxbA9-18" style="edgeStyle=orthogonalEdgeStyle;rounded=0;orthogonalLoop=1;jettySize=auto;html=1;fontSize=19;" parent="1" source="cE9KhYs64frih6GcxbA9-15" target="cE9KhYs64frih6GcxbA9-17" edge="1">
          <mxGeometry relative="1" as="geometry" />
        </mxCell>
        <mxCell id="cE9KhYs64frih6GcxbA9-15" value="JOIN W + DP" style="shape=process;whiteSpace=wrap;html=1;backgroundOutline=1;fontSize=19;" parent="1" vertex="1">
          <mxGeometry x="770" y="240" width="120" height="60" as="geometry" />
        </mxCell>
        <mxCell id="cE9KhYs64frih6GcxbA9-23" style="edgeStyle=orthogonalEdgeStyle;rounded=0;orthogonalLoop=1;jettySize=auto;html=1;exitX=0.5;exitY=1;exitDx=0;exitDy=0;exitPerimeter=0;entryX=0.5;entryY=1;entryDx=0;entryDy=0;fontSize=19;" parent="1" source="cE9KhYs64frih6GcxbA9-17" target="cE9KhYs64frih6GcxbA9-12" edge="1">
          <mxGeometry relative="1" as="geometry" />
        </mxCell>
        <mxCell id="cE9KhYs64frih6GcxbA9-17" value="GN" style="shape=cylinder3;whiteSpace=wrap;html=1;boundedLbl=1;backgroundOutline=1;size=15;fontSize=19;" parent="1" vertex="1">
          <mxGeometry x="1160" y="230" width="60" height="80" as="geometry" />
        </mxCell>
        <mxCell id="cE9KhYs64frih6GcxbA9-19" value="GROSS NOTIFY" style="text;html=1;align=center;verticalAlign=middle;resizable=0;points=[];autosize=1;strokeColor=none;fillColor=none;fontSize=19;" parent="1" vertex="1">
          <mxGeometry x="920" y="240" width="160" height="30" as="geometry" />
        </mxCell>
        <mxCell id="cE9KhYs64frih6GcxbA9-24" value="READ GROSS - EVERYDAY" style="text;html=1;align=center;verticalAlign=middle;resizable=0;points=[];autosize=1;strokeColor=none;fillColor=none;fontSize=19;" parent="1" vertex="1">
          <mxGeometry x="720" y="340" width="260" height="30" as="geometry" />
        </mxCell>
        <mxCell id="cE9KhYs64frih6GcxbA9-27" style="edgeStyle=orthogonalEdgeStyle;rounded=0;orthogonalLoop=1;jettySize=auto;html=1;exitX=1;exitY=0.5;exitDx=0;exitDy=0;fontSize=19;strokeWidth=2;entryX=0;entryY=0.5;entryDx=0;entryDy=0;entryPerimeter=0;" parent="1" source="cE9KhYs64frih6GcxbA9-25" target="cE9KhYs64frih6GcxbA9-28" edge="1">
          <mxGeometry relative="1" as="geometry">
            <mxPoint x="760" y="490" as="targetPoint" />
            <Array as="points" />
          </mxGeometry>
        </mxCell>
        <mxCell id="cE9KhYs64frih6GcxbA9-36" style="edgeStyle=orthogonalEdgeStyle;rounded=0;orthogonalLoop=1;jettySize=auto;html=1;fontSize=19;strokeWidth=2;" parent="1" source="cE9KhYs64frih6GcxbA9-25" edge="1">
          <mxGeometry relative="1" as="geometry">
            <mxPoint x="430" y="270" as="targetPoint" />
          </mxGeometry>
        </mxCell>
        <mxCell id="cE9KhYs64frih6GcxbA9-39" style="edgeStyle=orthogonalEdgeStyle;rounded=0;orthogonalLoop=1;jettySize=auto;html=1;entryX=0;entryY=0.5;entryDx=0;entryDy=0;entryPerimeter=0;fontSize=19;strokeWidth=2;" parent="1" source="cE9KhYs64frih6GcxbA9-25" target="cE9KhYs64frih6GcxbA9-38" edge="1">
          <mxGeometry relative="1" as="geometry" />
        </mxCell>
        <mxCell id="cE9KhYs64frih6GcxbA9-25" value="IS DAY" style="rhombus;whiteSpace=wrap;html=1;fontSize=19;" parent="1" vertex="1">
          <mxGeometry x="490" y="450" width="80" height="80" as="geometry" />
        </mxCell>
        <mxCell id="cE9KhYs64frih6GcxbA9-43" style="edgeStyle=orthogonalEdgeStyle;rounded=0;orthogonalLoop=1;jettySize=auto;html=1;entryX=0.5;entryY=0;entryDx=0;entryDy=0;fontSize=19;strokeWidth=2;" parent="1" source="cE9KhYs64frih6GcxbA9-28" target="cE9KhYs64frih6GcxbA9-41" edge="1">
          <mxGeometry relative="1" as="geometry" />
        </mxCell>
        <mxCell id="cE9KhYs64frih6GcxbA9-28" value="LN" style="shape=cylinder3;whiteSpace=wrap;html=1;boundedLbl=1;backgroundOutline=1;size=15;fontSize=19;" parent="1" vertex="1">
          <mxGeometry x="770" y="450" width="60" height="80" as="geometry" />
        </mxCell>
        <mxCell id="cE9KhYs64frih6GcxbA9-29" value="SIM" style="text;html=1;align=center;verticalAlign=middle;resizable=0;points=[];autosize=1;strokeColor=none;fillColor=none;fontSize=19;" parent="1" vertex="1">
          <mxGeometry x="640" y="460" width="50" height="30" as="geometry" />
        </mxCell>
        <mxCell id="cE9KhYs64frih6GcxbA9-33" style="edgeStyle=orthogonalEdgeStyle;rounded=0;orthogonalLoop=1;jettySize=auto;html=1;fontSize=19;strokeWidth=2;" parent="1" source="cE9KhYs64frih6GcxbA9-31" target="cE9KhYs64frih6GcxbA9-2" edge="1">
          <mxGeometry relative="1" as="geometry" />
        </mxCell>
        <mxCell id="cE9KhYs64frih6GcxbA9-31" value="QUEUE RABBIT" style="rounded=0;whiteSpace=wrap;html=1;fontSize=19;" parent="1" vertex="1">
          <mxGeometry x="1000" y="720" width="120" height="60" as="geometry" />
        </mxCell>
        <mxCell id="cE9KhYs64frih6GcxbA9-34" value="FB" style="shape=cylinder3;whiteSpace=wrap;html=1;boundedLbl=1;backgroundOutline=1;size=15;fontSize=19;" parent="1" vertex="1">
          <mxGeometry x="1180" y="550" width="60" height="80" as="geometry" />
        </mxCell>
        <mxCell id="cE9KhYs64frih6GcxbA9-37" value="VOLTA PARA FILA" style="text;html=1;align=center;verticalAlign=middle;resizable=0;points=[];autosize=1;strokeColor=none;fillColor=none;fontSize=19;rotation=90;" parent="1" vertex="1">
          <mxGeometry x="355" y="375" width="170" height="30" as="geometry" />
        </mxCell>
        <mxCell id="cE9KhYs64frih6GcxbA9-42" style="edgeStyle=orthogonalEdgeStyle;rounded=0;orthogonalLoop=1;jettySize=auto;html=1;entryX=0;entryY=0.5;entryDx=0;entryDy=0;fontSize=19;strokeWidth=2;" parent="1" source="cE9KhYs64frih6GcxbA9-38" target="cE9KhYs64frih6GcxbA9-41" edge="1">
          <mxGeometry relative="1" as="geometry" />
        </mxCell>
        <mxCell id="cE9KhYs64frih6GcxbA9-38" value="DEVICES" style="shape=cylinder3;whiteSpace=wrap;html=1;boundedLbl=1;backgroundOutline=1;size=15;fontSize=19;" parent="1" vertex="1">
          <mxGeometry x="560" y="610" width="110" height="100" as="geometry" />
        </mxCell>
        <mxCell id="cE9KhYs64frih6GcxbA9-44" style="edgeStyle=orthogonalEdgeStyle;rounded=0;orthogonalLoop=1;jettySize=auto;html=1;entryX=0;entryY=0.5;entryDx=0;entryDy=0;fontSize=19;strokeWidth=2;exitX=0.5;exitY=1;exitDx=0;exitDy=0;" parent="1" source="cE9KhYs64frih6GcxbA9-41" target="cE9KhYs64frih6GcxbA9-31" edge="1">
          <mxGeometry relative="1" as="geometry" />
        </mxCell>
        <mxCell id="cE9KhYs64frih6GcxbA9-41" value="join device with msg" style="shape=process;whiteSpace=wrap;html=1;backgroundOutline=1;fontSize=19;" parent="1" vertex="1">
          <mxGeometry x="740" y="630" width="120" height="60" as="geometry" />
        </mxCell>
      </root>
    </mxGraphModel>
  </diagram>
</mxfile>
